<svg viewBox="0 0 40 40" xmlns="http://www.w3.org/2000/svg">
  <path
    d="M20 10C15.3 10 11.5 13.6 11.5 18.1C11.5 19.7 12 21.2 12.9 22.5L12 28L17.4 26.3C18.2 26.5 19.1 26.7 20 26.7C24.7 26.7 28.5 23.1 28.5 18.6C28.5 14.1 24.7 10 20 10Z"
    fill="none"
    stroke="#111111"
    stroke-width="1.4"
    stroke-linejoin="round"
  />
  <path
    d="M18.1 18.3C18.2 18.7 18.6 19.4 19 19.8C19.4 20.2 19.9 20.6 20.3 20.7C20.5 20.8 20.7 20.8 20.8 20.6L21.5 19.8C21.6 19.7 21.8 19.7 22 19.8L23.4 20.4C23.5 20.5 23.6 20.6 23.6 20.8C23.5 21.2 23.3 22 22.5 22.4C21.7 22.8 20.5 22.6 19.2 22C18.1 21.5 17.2 20.6 16.5 19.7C15.8 18.8 15.3 17.7 15.2 16.9C15.2 16.5 15.3 16.2 15.5 16C15.7 15.8 16 15.6 16.4 15.6C16.6 15.6 16.7 15.7 16.8 15.9L17.5 17.4C17.6 17.5 17.6 17.7 17.5 17.8L17.1 18.3C17 18.5 17 18.6 18.1 18.3Z"
    fill="none"
    stroke="#111111"
    stroke-width="1.4"
    stroke-linecap="round"
    stroke-linejoin="round"
  />
</svg>
